HIERARCHY
ROOT RootJoint
{
    OFFSET   0.000000   0.000000   0.000000
    CHANNELS 6 Xposition Yposition Zposition Xrotation Yrotation Zrotation
    JOINT pelvis_lowerback
    {
        OFFSET   0.000000   0.093605   0.000000
        CHANNELS 3 Xrotation Yrotation Zrotation
        JOINT lowerback_torso
        {
            OFFSET   0.000000   0.100000   0.000000
            CHANNELS 3 Xrotation Yrotation Zrotation
            JOINT torso_head
            {
                OFFSET   0.000000   0.282350   0.000000
                CHANNELS 3 Xrotation Yrotation Zrotation
                End Site
                {
                    OFFSET   0.000000   0.192650   0.000000
                }
            }
            JOINT rTorso_Clavicle
            {
                OFFSET  -0.001000   0.157500   0.000000
                CHANNELS 3 Xrotation Yrotation Zrotation
                JOINT rShoulder
                {
                    OFFSET  -0.117647   0.000000   0.000000
                    CHANNELS 3 Xrotation Yrotation Zrotation
                    JOINT rElbow
                    {
                        OFFSET  -0.245000   0.000000   0.000000
                        CHANNELS 3 Xrotation Yrotation Zrotation
                        JOINT rWrist
                        {
                            OFFSET  -0.240000   0.000000   0.000000
                            CHANNELS 3 Xrotation Yrotation Zrotation
                            End Site
                            {
                                OFFSET  -0.116353  -0.002500   0.000000
                            }
                        }
                    }
                }
            }
            JOINT lTorso_Clavicle
            {
                OFFSET   0.001000   0.157500   0.000000
                CHANNELS 3 Xrotation Yrotation Zrotation
                JOINT lShoulder
                {
                    OFFSET   0.117647   0.000000   0.000000
                    CHANNELS 3 Xrotation Yrotation Zrotation
                    JOINT lElbow
                    {
                        OFFSET   0.245000   0.000000   0.000000
                        CHANNELS 3 Xrotation Yrotation Zrotation
                        JOINT lWrist
                        {
                            OFFSET   0.240000   0.000000   0.000000
                            CHANNELS 3 Xrotation Yrotation Zrotation
                            End Site
                            {
                                OFFSET   0.116353  -0.002500   0.000000
                            }
                        }
                    }
                }
            }
        }
    }
    JOINT rHip
    {
        OFFSET  -0.100000  -0.051395   0.000000
        CHANNELS 3 Xrotation Yrotation Zrotation
        JOINT rKnee
        {
            OFFSET   0.000000  -0.410000   0.000000
            CHANNELS 3 Xrotation Yrotation Zrotation
            JOINT rAnkle
            {
                OFFSET   0.000000  -0.390000   0.000000
                CHANNELS 3 Xrotation Yrotation Zrotation
                JOINT rToeJoint
                {
                    OFFSET   0.000000  -0.050000   0.130000
                    CHANNELS 3 Xrotation Yrotation Zrotation
                    End Site
                    {
                        OFFSET  -0.010000   0.002000   0.060000
                    }
                }
            }
        }
    }
    JOINT lHip
    {
        OFFSET   0.100000  -0.051395   0.000000
        CHANNELS 3 Xrotation Yrotation Zrotation
        JOINT lKnee
        {
            OFFSET   0.000000  -0.410000   0.000000
            CHANNELS 3 Xrotation Yrotation Zrotation
            JOINT lAnkle
            {
                OFFSET   0.000000  -0.390000   0.000000
                CHANNELS 3 Xrotation Yrotation Zrotation
                JOINT lToeJoint
                {
                    OFFSET   0.000000  -0.050000   0.130000
                    CHANNELS 3 Xrotation Yrotation Zrotation
                    End Site
                    {
                        OFFSET   0.010000   0.002000   0.060000
                    }
                }
            }
        }
    }
}
MOTION
Frames: 11
Frame Time:   0.008333
 -2.392278   0.865521   4.236192  -2.033546   4.573166   2.678223  12.945577   5.339504  -2.185425   5.854028   1.028712  -0.361109  -4.514011   0.495613  -0.455389   1.017164   5.891012  14.725966  -2.297026  13.016802  41.095722   0.001602  34.702019  -0.007163   5.098045   3.351961  -6.986794   3.643811   0.820775 -15.548419   9.422560  -2.257402 -46.866885  -0.001831 -23.923803  -0.000553   3.164340  -3.085734   5.522452  13.897246  -5.281795  -4.423096  17.783456   0.000406  -0.000644 -29.765843  -4.003296  -0.670048  -0.005898  -0.000002  -0.000004 -31.893864   1.782109   2.864048  30.318226   0.004915   0.003401 -12.469371   7.339609  -0.354386  -2.320816  -0.000064   0.001142
 -2.390553   0.862783   4.243021  -1.791814   4.417370   2.648506  12.984365   5.389287  -2.253877   5.915442   1.158773  -0.473989  -4.666996   0.436293  -0.395104   0.890786   6.055163  14.754823  -2.599677  13.222891  41.075067   0.001653  35.316937  -0.007076   5.079439   3.358011  -7.101753   3.685144   0.907904 -15.581546   9.600112  -2.140492 -46.806521  -0.001936 -23.636764  -0.000797   3.148539  -3.103981   5.501405  14.042603  -5.252873  -4.573124  18.002257   0.000543  -0.000799 -30.327816  -3.932388  -0.394600  -0.052819   0.000039  -0.000004 -32.636468   1.587935   3.040091  30.253278   0.004049   0.002851 -12.535949   7.187888  -0.359027  -2.486969   0.000013   0.001534
 -2.388738   0.860001   4.250054  -1.569038   4.256089   2.621937  13.029372   5.432755  -2.332980   5.982895   1.285376  -0.583276  -4.809044   0.378384  -0.338442   0.757165   6.222231  14.791365  -2.894991  13.429095  41.060749   0.001690  35.900382  -0.006878   5.068017   3.412884  -7.226182   3.727863   0.989547 -15.608037   9.770011  -2.024680 -46.738575  -0.001973 -23.360719  -0.001009   3.131017  -3.077674   5.491757  14.209727  -5.206011  -4.735146  18.243649   0.000703  -0.000929 -30.861018  -3.846097  -0.128630   0.407804  -0.000288   0.000136 -33.344439   1.394138   3.211612  30.278522   0.003198   0.002224 -12.595064   7.046015  -0.363050  -2.646241   0.000085   0.001814
 -2.386819   0.857162   4.257275  -1.342963   4.085600   2.595801  13.066183   5.480549  -2.416835   6.043736   1.410898  -0.690475  -4.941042   0.323792  -0.287092   0.625953   6.384983  14.828822  -3.175980  13.628054  41.051409   0.001717  36.448611  -0.006613   5.060169   3.490804  -7.347618   3.770843   1.068474 -15.627891   9.930897  -1.913261 -46.671624  -0.001954 -23.101176  -0.001153   3.113025  -3.036047   5.488316  14.387182  -5.171362  -4.903988  18.479285   0.000819  -0.001068 -31.371055  -3.775322   0.119241   0.107020  -0.000100   0.000101 -34.016276   1.208899   3.378243  30.315776   0.002498   0.001698 -12.649559   6.913782  -0.366755  -2.792324   0.000134   0.001979
 -2.384793   0.854270   4.264675  -1.109587   3.919471   2.565038  13.093634   5.528179  -2.496767   6.095658   1.531598  -0.792709  -5.064849   0.272593  -0.240116   0.500586   6.539839  14.864717  -3.440610  13.816534  41.044379   0.001739  36.961819  -0.006309   5.054139   3.576811  -7.464755   3.811995   1.143535 -15.644501  10.081704  -1.807880 -46.607886  -0.001895 -22.858400  -0.001238   3.095366  -2.991102   5.488559  14.572601  -5.138538  -5.073720  18.708558   0.000920  -0.001169 -31.849698  -3.707870   0.349464  -0.233396  -0.000010   0.000068 -34.653774   1.031670   3.536720  30.351040   0.001946   0.001284 -12.700327   6.790363  -0.370190  -2.926234   0.000160   0.002043
 -2.382658   0.851322   4.272251  -0.866665   3.760760   2.528409  13.112032   5.574665  -2.571534   6.138571   1.646144  -0.888893  -5.181298   0.224712  -0.196626   0.382311   6.685691  14.898308  -3.688693  13.993731  41.038864   0.001757  37.441529  -0.005983   5.049114   3.664312  -7.577476   3.850307   1.214168 -15.658686  10.222241  -1.709121 -46.547801  -0.001811 -22.631934  -0.001280   3.078389  -2.947957   5.491168  14.763249  -5.108674  -5.242460  18.932321   0.001009  -0.001239 -32.294781  -3.645030   0.563992  -0.621772  -0.000011   0.000034 -35.258131   0.863308   3.685696  30.382088   0.001514   0.000965 -12.747774   6.675177  -0.373399  -3.049270   0.000168   0.002033
 -2.380416   0.848312   4.279996  -0.612416   3.609411   2.485410  13.121957   5.619505  -2.641083   6.172940   1.754074  -0.978994  -5.290927   0.179999  -0.156189   0.271424   6.822396  14.929413  -3.920737  14.159732  41.034486   0.001770  37.889627  -0.005647   5.044729   3.750566  -7.685714   3.885387   1.280220 -15.670751  10.352763  -1.617027 -46.491274  -0.001713 -22.420997  -0.001294   3.062241  -2.908792   5.495659  14.957006  -5.081812  -5.409787  19.150605   0.001088  -0.001284 -32.706734  -3.586554   0.763482  -1.060693  -0.000100  -0.000002 -35.830339   0.703964   3.824780  30.409101   0.001178   0.000721 -12.792147   6.567683  -0.376405  -3.162425   0.000162   0.001971
 -2.378035   0.845475   4.288121  -0.369796   3.504803   2.424211  13.078381   5.659312  -2.717694   6.244167   1.874593  -1.042205  -5.442118   0.117394  -0.086311   0.175191   6.950619  14.989039  -4.042901  14.324744  40.966780   0.001970  38.314056  -0.005815   5.093721   3.805875  -7.833838   3.906248   1.315214 -15.764499  10.474690  -1.567503 -46.295104  -0.001616 -22.162470  -0.001394   3.071746  -2.869602   5.472279  15.142726  -5.003792  -5.555180  19.460732   0.001365  -0.001220 -32.905195  -3.602024   1.055565  -1.911480   0.000416  -0.000124 -36.666989   0.576809   3.924147  31.575871   0.000270  -0.000835 -12.903993   6.497825  -0.318703  -3.225633   0.000198   0.001700
 -2.375468   0.842285   4.296407  -0.103640   3.366637   2.476863  13.013002   5.710884  -2.900713   6.290974   1.991534  -1.145635  -5.585518   0.059413  -0.024076   0.091240   7.070772  15.034672  -4.153712  14.482458  40.913707   0.001998  38.714904  -0.005873   5.145662   3.868225  -7.948905   3.924817   1.348142 -15.806600  10.588171  -1.517553 -46.087324  -0.001422 -21.921657  -0.001398   3.081987  -2.827680   5.467548  15.333023  -4.882205  -5.843848  19.811305   0.001769  -0.001093 -32.584613  -3.539534   1.227583  -5.825581  -0.002926  -0.004773 -37.489635   0.486641   3.902592  32.871795  -0.000484  -0.003074 -12.999501   6.434183  -0.265704  -3.288262   0.000218   0.001518
 -2.372836   0.839433   4.305061   0.145027   3.260472   2.435510  12.941063   5.756001  -3.001048   6.332353   2.099146  -1.221869  -5.725561   0.005670   0.032784   0.016082   7.182004  15.096513  -4.252420  14.622051  40.857402   0.001981  39.079638  -0.005708   5.193142   3.901258  -8.062561   3.934399   1.374172 -15.876208  10.687956  -1.473710 -45.891701  -0.001312 -21.693929  -0.001383   3.090284  -2.770738   5.493156  15.544389  -4.806807  -6.025239  20.137255   0.001987  -0.001083 -32.758245  -3.551420   1.485107  -6.347100  -0.002233  -0.003949 -38.196684   0.391472   3.928683  34.113515  -0.000644  -0.004124 -13.086068   6.374039  -0.216350  -3.338387   0.000213   0.001310
 -2.370088   0.836720   4.313980   0.417599   3.151224   2.386368  12.847831   5.801261  -3.109658   6.353212   2.200100  -1.293788  -5.858158  -0.044466   0.086749  -0.049763   7.285138  15.156800  -4.342523  14.753335  40.812835   0.001908  39.421290  -0.005452   5.237807   3.930737  -8.160573   3.942137   1.398689 -15.934717  10.779850  -1.433959 -45.710281  -0.001225 -21.483701  -0.001356   3.098723  -2.725505   5.516479  15.735801  -4.736927  -6.206976  20.462862   0.002165  -0.001109 -32.771706  -3.546986   1.700056  -7.204134  -0.002067  -0.003419 -38.832703   0.310570   3.933063  35.286811  -0.000506  -0.004948 -13.166213   6.318342  -0.170446  -3.383788   0.000194   0.001133
